<svg xmlns="http://www.w3.org/2000/svg" width="16" height="16" viewBox="0 0 512 512" role="img" aria-labelledby="title">
  <title id="title">Logo Rifas</title>
  <defs>
    <linearGradient id="tile" x1="0" y1="0" x2="1" y2="1"><stop offset="0" stop-color="#110747"/><stop offset="1" stop-color="#080332"/></linearGradient>
    <linearGradient id="ticket" x1="0" y1="1" x2="1" y2="0"><stop offset="0" stop-color="#742EEB"/><stop offset=".4" stop-color="#C637C9"/><stop offset=".72" stop-color="#FF5F65"/><stop offset="1" stop-color="#FFD05C"/></linearGradient>
    <clipPath id="ticketClip"><path d="M112 167a28 28 0 0 1 28-28h232a28 28 0 0 1 28 28v28a26 26 0 0 0 0 52v98a28 28 0 0 1-28 28H140a28 28 0 0 1-28-28v-98a26 26 0 0 0 0-52z"/></clipPath>
  </defs>
  <rect width="512" height="512" rx="108" fill="url(#tile)"/>
  <g clip-path="url(#ticketClip)"><rect x="112" y="139" width="288" height="234" fill="url(#ticket)"/><path d="M83 124c84 83 210 67 346 136v91c-121-94-254-64-346-150z" fill="#E04A9E" opacity=".65"/></g>
  <g fill="#0B0539"><circle cx="192" cy="256" r="18"/><circle cx="235" cy="256" r="18"/><circle cx="278" cy="256" r="18"/><circle cx="321" cy="256" r="18"/></g>
</svg>
